<svg xmlns="http://www.w3.org/2000/svg" xml:space="preserve" viewBox="0 0 512 512">
  <defs>
    <linearGradient id="a" x1="0%" x2="100%" y1="0%" y2="100%">
      <stop offset="0%" style="stop-color:#4f46e5;stop-opacity:1"/>
      <stop offset="45%" style="stop-color:#9333ea;stop-opacity:1"/>
      <stop offset="100%" style="stop-color:#db2777;stop-opacity:1"/>
    </linearGradient>
  </defs>
  <rect width="100%" height="100%" fill="url(#a)" rx="0" ry="0"/>
  <path fill="#FFF" d="m296.46 411.78-22.48-55.58H141.57l-22.48 55.58H52.47l124.25-286.09h66.62l122.2 286.09h-69.08zM162.82 304.29h90.32l-44.96-111.17-45.36 111.17zm287.11-200.26c6.4 6.54 9.6 14.99 9.6 25.34 0 10.36-3.21 18.8-9.6 25.34-6.4 6.54-14.65 9.81-24.73 9.81-9.81 0-17.92-3.33-24.32-10.01-6.4-6.67-9.6-15.05-9.6-25.13 0-10.35 3.2-18.8 9.6-25.34 6.4-6.54 14.51-9.81 24.32-9.81 10.08-.01 18.32 3.26 24.73 9.8zm-55.79 87.87h62.94v219.88h-62.94V191.9z"/>
</svg>
