<?xml version="1.0" encoding="utf-8"?>
<!-- Generator: Adobe Illustrator 27.7.0, SVG Export Plug-In . SVG Version: 6.00 Build 0)  -->
<svg version="1.1" xmlns="http://www.w3.org/2000/svg" xmlns:xlink="http://www.w3.org/1999/xlink" x="0px" y="0px" width="1372px"
	 height="242px" viewBox="0 0 1372 242" style="enable-background:new 0 0 1372 242;" xml:space="preserve">
<style type="text/css">
	.st0{display:none;}
	.st1{display:inline;}
	.st2{fill:#F58A26;}
	.st3{fill:#FFFFFF;}
	.st4{fill:#D43272;}
	.st5{fill:url(#SVGID_1_);}
	.st6{fill:url(#SVGID_00000049204339426771370870000001253909669684449956_);}
	.st7{fill:url(#SVGID_00000142134879683172847200000013987874073003799702_);}
	.st8{display:inline;fill:url(#SVGID_00000091706586183204320290000011343999688660333717_);}
	.st9{fill:url(#SVGID_00000161606206890515733460000017698088430308818101_);}
	.st10{fill:url(#SVGID_00000000918288990161468110000008567641036686650021_);}
	.st11{fill:url(#SVGID_00000026870218065965123930000014167258629223528095_);}
	.st12{fill:#FFC300;}
	.st13{fill:#994492;}
	.st14{fill:#79499A;}
	.st15{display:inline;fill:url(#SVGID_00000133503216604001337820000006603461577584446639_);}
	.st16{display:inline;fill:#FFFFFF;}
	.st17{display:inline;stroke:#FFFFFF;stroke-width:10;stroke-linecap:round;stroke-linejoin:round;stroke-miterlimit:10;}
	.st18{display:inline;fill:url(#SVGID_00000117638389630195595670000012634812293467117744_);}
	.st19{display:inline;fill:url(#SVGID_00000165206968426933792850000013394882850466331830_);}
	.st20{display:inline;fill:#F58A26;}
	.st21{fill:none;}
	.st22{fill:url(#SVGID_00000072276285052995999320000000597043256904947635_);}
	.st23{fill:url(#SVGID_00000138560806673263384420000007079239134685016766_);}
	.st24{fill:url(#SVGID_00000011723174588324209700000013910432449896728744_);}
	.st25{fill:url(#SVGID_00000091709222252496527570000014382167031938453642_);}
	.st26{clip-path:url(#SVGID_00000067203123869187222520000016553252426168077735_);}
	.st27{clip-path:url(#SVGID_00000174560853670221141280000011894371529986629296_);}
	.st28{clip-path:url(#SVGID_00000044867952876649461320000018318708620341229717_);}
	.st29{clip-path:url(#SVGID_00000132077101758269429440000013045302919017893005_);}
	.st30{clip-path:url(#SVGID_00000108286861212826075430000010642725661992813242_);}
	.st31{clip-path:url(#SVGID_00000057117829901081059240000004258551847689369738_);}
	.st32{clip-path:url(#SVGID_00000170976682679187151880000008054143350453911435_);}
	.st33{stroke:#FFFFFF;stroke-width:8;stroke-miterlimit:10;}
	
		.st34{clip-path:url(#SVGID_00000036941035408245115380000001168514870272159880_);stroke:#FFFFFF;stroke-width:8;stroke-miterlimit:10;}
	.st35{clip-path:url(#SVGID_00000063621232622759696160000002994415472698878894_);}
	.st36{stroke:#FFFFFF;stroke-width:17;stroke-miterlimit:10;}
	
		.st37{clip-path:url(#SVGID_00000119795783191526021580000006303224451288744604_);stroke:#FFFFFF;stroke-width:17;stroke-miterlimit:10;}
	.st38{clip-path:url(#SVGID_00000067194888572872225960000017299309990426167202_);}
	.st39{fill:#FF00FF;}
	.st40{fill:#00FFFF;}
	.st41{fill:#FFFF00;}
	.st42{clip-path:url(#SVGID_00000180351927592097283380000001059845923881557166_);}
	.st43{clip-path:url(#SVGID_00000023280976680792218420000000458317361120280450_);}
	.st44{clip-path:url(#SVGID_00000078014175616287493730000012880792447366866560_);}
	.st45{clip-path:url(#SVGID_00000067197351021539043440000001067242034887394494_);}
	.st46{clip-path:url(#SVGID_00000136385465434305696540000012813053067798697099_);}
	.st47{clip-path:url(#SVGID_00000136385465434305696540000012813053067798697099_);fill:#FF00FF;}
</style>
<g id="bg" class="st0">
</g>
<g id="Layer_14" class="st0">
</g>
<g id="Layer_1" class="st0">
</g>
<g id="Layer_2" class="st0">
</g>
<g id="Layer_7" class="st0">
</g>
<g id="Layer_6" class="st0">
</g>
<g id="masks" class="st0">
</g>
<g id="fills" class="st0">
</g>
<g id="Layer_4" class="st0">
</g>
<g id="Layer_5" class="st0">
</g>
<g id="Layer_8" class="st0">
</g>
<g id="masks_2" class="st0">
</g>
<g id="Layer_12" class="st0">
</g>
<g id="Layer_11" class="st0">
</g>
<g id="Layer_13">
</g>
<g id="Layer_16">
</g>
<g id="Layer_18" class="st0">
</g>
<g id="logo_mark_with_word">
	<g>
		<path d="M173.8,3c-23.6,0-44,13.1-54.6,32.4h26.2c26-24.9,69.6-6.4,69.7,29.8c-1.3,48.5-68,56.8-81.2,10.2h-21.4
			c6.1,41.7,54.9,65.2,91.2,44.5C259.3,89.7,238.1,3.1,173.8,3z"/>
		<path d="M140.1,211l-1.2-2h-23.1c0.5,1,1.7,3,2.3,3.9c1.9,3.3,0.3,6.1-3.5,6.1h-81c-3.9,0-5.4-2.7-3.5-6.1l1.1-1.9
			c0,0,8-13.8,8-13.8L70,143.9l0.6-1.1c1.9-3.3,5.1-3.3,7,0L92.7,169h23.1c0,0-26.7-46.3-26.7-46.3c-8.1-14.6-22.5-13.7-30,0
			c0,0-30.6,53-30.6,53l-1.5,2.7c0,0-20,34.6-20,34.6c-8.2,14.3-1.5,26,15,26c0,0,104.3,0,104.3,0
			C144.1,239.2,149.6,225.1,140.1,211z"/>
		<path d="M173.6,137.5c-0.3,0-0.7,0-1,0V169c0,5.4-4.6,10-10,10H69c-2.4,0-4.6-0.9-6.4-2.4l-10.1,17.4c4.7,3.1,10.4,4.9,16.4,4.9
			h93.6c16.5,0,30-13.5,30-30v-34C186.5,136.6,180.1,137.5,173.6,137.5z"/>
		<path d="M59,107.6V75.4c0-5.4,4.6-10,10-10h93.6c5.4,0,10,4.6,10,10v21c7.4,0.3,14.5-2.1,20-6.3V75.4c0-16.5-13.5-30-30-30H69
			c-16.5,0-30,13.5-30,30v62.2C43.6,130.3,51.8,112.5,59,107.6z"/>
	</g>
	<g>
		<path d="M383,187.2l-8.5-20.9h-49.9l-8.5,20.9H291l46.8-107.8H363l46,107.8H383z M332.6,146.7h34l-16.9-41.9L332.6,146.7z"/>
		<path d="M440.8,71.2c2.4,2.5,3.6,5.6,3.6,9.5c0,3.9-1.2,7.1-3.6,9.5c-2.4,2.5-5.5,3.7-9.3,3.7c-3.7,0-6.8-1.3-9.2-3.8
			c-2.4-2.5-3.6-5.7-3.6-9.5c0-3.9,1.2-7.1,3.6-9.5c2.4-2.5,5.5-3.7,9.2-3.7C435.3,67.6,438.4,68.8,440.8,71.2z M419.8,104.4h23.7
			v82.9h-23.7V104.4z"/>
		<path d="M520.1,101.4c-6.2-2-11.5-3-15.9-3c-4.2,0-7.5,0.8-10,2.3c-2.5,1.5-3.7,3.8-3.7,6.8c0,3.8,1.8,6.7,5.3,8.7s9,4.1,16.4,6.2
			s13.5,4.3,18.2,6.5c4.8,2.2,8.9,5.4,12.2,9.7c3.4,4.3,5.1,10,5.1,17.1c0,6.9-1.8,12.8-5.5,17.8c-3.6,5-8.7,8.8-15,11.3
			c-6.4,2.6-13.6,3.8-21.7,3.8c-8.7,0-17.3-1.5-25.7-4.6c-8.4-3.1-15.7-7.3-21.9-12.6l9.7-19.9c5.4,4.9,11.7,8.9,18.8,11.9
			c7.1,3,13.6,4.5,19.4,4.5c5,0,9-0.9,11.8-2.8c2.8-1.8,4.2-4.5,4.2-8c0-2.8-1-5.1-2.8-6.9c-1.9-1.8-4.3-3.3-7.2-4.4
			c-2.9-1.1-7-2.4-12.1-3.9c-7.4-2.1-13.4-4.1-18.1-6.2c-4.7-2.1-8.7-5.2-12.1-9.4c-3.4-4.2-5.1-9.8-5.1-16.8c0-6.5,1.7-12.1,5.2-17
			c3.5-4.9,8.4-8.6,14.6-11.2c6.3-2.6,13.6-3.9,21.9-3.9c7.4,0,14.7,1.1,21.9,3.2c7.2,2.2,13.6,5,19.1,8.6l-9.4,20.2
			C532.2,106.1,526.3,103.4,520.1,101.4z"/>
		<path d="M632.4,108.9c5.9,3.5,10.5,8.5,13.7,15c3.2,6.5,4.9,13.9,4.9,22.3c0,8.3-1.6,15.6-4.8,21.9c-3.2,6.3-7.7,11.2-13.5,14.7
			c-5.8,3.5-12.6,5.2-20.3,5.2c-5.8,0-10.9-1.1-15.3-3.3c-4.5-2.2-8.2-5.4-11.3-9.6v41.9h-23.7V104.4h23.7v12.2
			c3-4.2,6.7-7.4,11.2-9.6c4.5-2.2,9.5-3.3,15-3.3C619.7,103.6,626.5,105.4,632.4,108.9z M621.2,162c3.8-4.3,5.7-9.8,5.7-16.6
			c0-6.7-1.9-12.1-5.7-16.4c-3.8-4.3-8.7-6.4-14.8-6.4c-6.1,0-11,2.1-14.9,6.4c-3.9,4.3-5.8,9.7-5.8,16.4c0,6.9,1.9,12.4,5.8,16.6
			c3.8,4.2,8.8,6.3,14.9,6.3C612.5,168.4,617.4,166.3,621.2,162z"/>
		<path d="M714.7,187.2v-9.7c-2.8,3.5-6.4,6.2-10.8,8c-4.4,1.8-9.5,2.8-15.2,2.8c-8.7,0-15.7-2.4-20.8-7.2c-5.1-4.8-7.7-11-7.7-18.7
			c0-7.8,2.7-13.9,8.2-18.2c5.5-4.4,13.3-6.6,23.3-6.7h22.8v-1.5c0-4.4-1.5-7.8-4.4-10.2c-2.9-2.4-7.2-3.6-12.9-3.6
			c-7.7,0-15.9,2.4-24.6,7.2l-7.4-16.3c6.6-3.3,12.7-5.7,18.5-7.2c5.7-1.5,12.1-2.3,18.9-2.3c11.1,0,19.7,2.6,25.8,7.9
			c6.1,5.2,9.2,12.5,9.3,21.9l0.2,54.1H714.7z M708.1,167.8c3.6-2.4,5.7-5.3,6.5-8.9v-7.4h-18.6c-4.6,0-8,0.7-10.2,2.2
			c-2.2,1.5-3.3,3.9-3.3,7.2c0,3.2,1.2,5.7,3.5,7.6c2.3,1.9,5.5,2.8,9.5,2.8C700.2,171.3,704.5,170.2,708.1,167.8z"/>
		<path d="M795.2,123.8c-6,0-10.8,2-14.6,6.1c-3.7,4.1-5.6,9.4-5.6,16.1c0,6.7,1.8,12.1,5.5,16.2c3.7,4.2,8.4,6.2,14.2,6.2
			c8.6,0,15-3.2,19.2-9.7l16.3,11.1c-3.5,5.9-8.4,10.4-14.7,13.6c-6.3,3.2-13.7,4.8-22.1,4.8c-8.3,0-15.7-1.7-22-5.2
			c-6.4-3.5-11.3-8.4-14.9-14.8c-3.5-6.4-5.3-13.7-5.3-22c0-8.4,1.8-15.8,5.3-22.3c3.5-6.4,8.5-11.4,14.9-14.9
			c6.4-3.5,13.8-5.3,22.3-5.3c7.9,0,14.9,1.5,21.1,4.5c6.2,3,11.1,7.3,14.8,12.9l-16,11.5C809,126.7,802.8,123.8,795.2,123.8z"/>
		<path d="M908.5,115.1c6.9,7.7,10.4,18.4,10.4,32.2c0,2.5-0.1,4.4-0.2,5.7h-59.4c1.3,5.2,3.9,9.3,7.7,12.2
			c3.8,2.9,8.4,4.4,13.7,4.4c3.9,0,7.6-0.7,11.2-2.2c3.6-1.5,6.8-3.7,9.7-6.5l12.5,12.6c-4.2,4.7-9.3,8.3-15.3,10.9
			c-6,2.5-12.7,3.8-20.1,3.8c-8.7,0-16.4-1.7-22.9-5.2c-6.5-3.5-11.5-8.4-15.1-14.8c-3.5-6.4-5.3-13.7-5.3-22
			c0-8.4,1.8-15.8,5.4-22.3c3.6-6.4,8.6-11.4,15.1-14.9s13.9-5.3,22.2-5.3C891.4,103.6,901.6,107.4,908.5,115.1z M896.6,139
			c-0.2-5.4-2-9.8-5.2-13.1c-3.3-3.3-7.6-4.9-13.1-4.9c-5.1,0-9.4,1.6-12.9,4.9c-3.4,3.2-5.6,7.6-6.5,13.2H896.6z"/>
		<path d="M973.2,122.8c-4.4-1.4-8.4-2.1-11.9-2.1c-2.9,0-5.2,0.5-6.9,1.5c-1.7,1-2.6,2.6-2.6,4.6c0,2.3,1.2,4,3.5,5.2
			c2.4,1.2,6.2,2.6,11.5,4.2c5.9,1.7,10.7,3.5,14.5,5.2c3.8,1.7,7.1,4.2,9.9,7.5c2.8,3.3,4.2,7.7,4.2,13.2c0,8.2-3.2,14.6-9.5,19.2
			c-6.3,4.6-14.4,6.9-24.3,6.9c-6.8,0-13.3-1-19.6-3c-6.3-2-11.7-4.9-16.3-8.5l7.7-16c4.2,3.3,8.9,5.8,14.1,7.6
			c5.2,1.8,10.1,2.7,14.7,2.7c3.2,0,5.7-0.5,7.6-1.6c1.9-1.1,2.8-2.7,2.8-4.9c0-2.4-1.2-4.2-3.6-5.5c-2.4-1.3-6.3-2.8-11.6-4.3
			c-5.6-1.6-10.3-3.3-14.1-4.9c-3.7-1.6-7-4.1-9.6-7.5c-2.7-3.3-4-7.7-4-13c0-8.2,3.1-14.6,9.2-19.1c6.2-4.5,14-6.8,23.4-6.8
			c5.6,0,11.3,0.8,16.9,2.4c5.6,1.6,10.8,3.9,15.4,6.9l-8.2,16.2C982.1,126.1,977.7,124.1,973.2,122.8z"/>
		<path d="M1026.5,167.5c2.2,2.3,3.3,5.2,3.3,8.8c0,3.6-1.1,6.5-3.3,8.9c-2.2,2.3-5.1,3.5-8.5,3.5c-3.4,0-6.2-1.2-8.5-3.5
			c-2.3-2.4-3.4-5.3-3.4-8.8c0-3.6,1.1-6.5,3.4-8.8c2.3-2.3,5.1-3.4,8.5-3.4C1021.4,164.1,1024.2,165.2,1026.5,167.5z"/>
		<path d="M1084.3,123.8c-6,0-10.8,2-14.6,6.1c-3.7,4.1-5.6,9.4-5.6,16.1c0,6.7,1.8,12.1,5.5,16.2c3.7,4.2,8.4,6.2,14.2,6.2
			c8.6,0,15-3.2,19.2-9.7l16.3,11.1c-3.5,5.9-8.4,10.4-14.7,13.6c-6.3,3.2-13.7,4.8-22.1,4.8c-8.3,0-15.7-1.7-22-5.2
			c-6.4-3.5-11.3-8.4-14.9-14.8c-3.5-6.4-5.3-13.7-5.3-22c0-8.4,1.8-15.8,5.3-22.3c3.5-6.4,8.5-11.4,14.9-14.9
			c6.4-3.5,13.8-5.3,22.3-5.3c7.9,0,14.9,1.5,21.1,4.5c6.2,3,11.1,7.3,14.8,12.9l-16,11.5C1098,126.7,1091.9,123.8,1084.3,123.8z"/>
		<path d="M1195.2,108.8c6.7,3.5,11.9,8.4,15.6,14.8c3.7,6.4,5.5,13.8,5.5,22.2c0,8.3-1.8,15.7-5.5,22.1
			c-3.7,6.4-8.9,11.4-15.6,14.9c-6.7,3.5-14.5,5.3-23.2,5.3c-8.8,0-16.6-1.8-23.3-5.3c-6.7-3.5-11.9-8.5-15.6-14.9
			c-3.7-6.4-5.5-13.8-5.5-22.1c0-8.4,1.8-15.8,5.5-22.2c3.7-6.4,8.9-11.3,15.6-14.8c6.7-3.5,14.5-5.2,23.3-5.2
			C1180.8,103.6,1188.5,105.3,1195.2,108.8z M1157,129.6c-3.8,4.2-5.8,9.7-5.8,16.5c0,6.8,1.9,12.3,5.8,16.5c3.9,4.2,8.9,6.3,15,6.3
			c6.1,0,11-2.1,14.9-6.3c3.9-4.2,5.8-9.7,5.8-16.5c0-6.8-1.9-12.3-5.8-16.5c-3.8-4.2-8.8-6.3-14.9-6.3
			C1165.9,123.3,1160.9,125.4,1157,129.6z"/>
		<path d="M1360.5,112c5.4,5.7,8.1,13.4,8.1,23.2v52.1H1345v-45.1c0-5.3-1.4-9.5-4.3-12.5c-2.9-3-6.8-4.5-11.7-4.5
			c-5.6,0.1-10.1,2.1-13.4,6c-3.3,3.9-4.9,8.9-4.9,15.1v41h-23.6v-45.1c0-5.2-1.4-9.4-4.2-12.4c-2.8-3-6.7-4.5-11.6-4.5
			c-5.6,0.1-10.1,2.1-13.5,6c-3.3,3.9-5,8.9-5,15.1v41H1229v-82.9h23.7v14.3c5.7-10,15.1-15,28-15.2c7,0,12.9,1.7,17.7,5
			c4.8,3.3,8.3,8,10.3,14.1c2.7-6.3,6.5-11,11.6-14.2c5.1-3.2,11.2-4.8,18.2-4.9C1347.8,103.4,1355.1,106.3,1360.5,112z"/>
	</g>
</g>
</svg>
