<?xml version="1.0" encoding="utf-8"?>
<!-- Generator: Adobe Illustrator 27.7.0, SVG Export Plug-In . SVG Version: 6.00 Build 0)  -->
<svg version="1.1" xmlns="http://www.w3.org/2000/svg" xmlns:xlink="http://www.w3.org/1999/xlink" x="0px" y="0px" width="238px"
	 height="240px" viewBox="0 0 238 240" style="enable-background:new 0 0 238 240;" xml:space="preserve">
<style type="text/css">
	.st0{display:none;}
	.st1{display:inline;}
	.st2{fill:#F68B26;}
	.st3{fill:#FFFFFF;}
	.st4{fill:#D53272;}
	.st5{fill:url(#SVGID_1_);}
	.st6{fill:url(#SVGID_00000054224397472448797980000001972771699530561462_);}
	.st7{fill:url(#SVGID_00000032620761967441784600000016495087678283969159_);}
	.st8{display:inline;fill:url(#SVGID_00000163769393190107906260000010564439048367865744_);}
	.st9{fill:url(#SVGID_00000160192239031902087550000015734209982337827218_);}
	.st10{fill:url(#SVGID_00000126310606129938900480000017225120365500804236_);}
	.st11{fill:url(#SVGID_00000176745510771785936770000011303107464778986914_);}
	.st12{fill:#FFC400;}
	.st13{fill:#9A4493;}
	.st14{fill:#79499B;}
	.st15{display:inline;fill:url(#SVGID_00000084530682806795185560000006026222726979017897_);}
	.st16{display:inline;fill:#FFFFFF;}
	.st17{display:inline;stroke:#FFFFFF;stroke-width:10;stroke-linecap:round;stroke-linejoin:round;stroke-miterlimit:10;}
	.st18{display:inline;fill:url(#SVGID_00000151519232846929189270000010807094994739215235_);}
	.st19{display:inline;fill:url(#SVGID_00000059307572349085952290000003202410800095469749_);}
	.st20{display:inline;fill:#F68B26;}
	.st21{fill:none;}
	.st22{fill:url(#SVGID_00000176037326109668359520000013401182744936547469_);}
	.st23{fill:url(#SVGID_00000052074412368978064520000017661692871785215639_);}
	.st24{fill:url(#SVGID_00000083086366825532323080000008158018385295656373_);}
	.st25{fill:url(#SVGID_00000018217768952770925550000013096496348558981002_);}
	.st26{clip-path:url(#SVGID_00000140721405739296238300000010191480762906216615_);}
	.st27{clip-path:url(#SVGID_00000072239924491151186270000005314441268633305007_);}
	.st28{clip-path:url(#SVGID_00000072975945907948386780000016011018274568317617_);}
	.st29{clip-path:url(#SVGID_00000142882535416567436510000005219190966217627019_);}
	.st30{clip-path:url(#SVGID_00000158004377703986765800000017317186542180658586_);}
	.st31{clip-path:url(#SVGID_00000135652647873094625990000016061036078283067301_);}
	.st32{clip-path:url(#SVGID_00000073711734038206310480000001620357419757955502_);}
	.st33{stroke:#FFFFFF;stroke-width:8;stroke-miterlimit:10;}
	
		.st34{clip-path:url(#SVGID_00000105405438954942220830000006843521704711006864_);stroke:#FFFFFF;stroke-width:8;stroke-miterlimit:10;}
	.st35{clip-path:url(#SVGID_00000032636142626050339690000000629398545418176146_);}
	.st36{stroke:#FFFFFF;stroke-width:17;stroke-miterlimit:10;}
	
		.st37{clip-path:url(#SVGID_00000063602104150461760210000016418138922069787821_);stroke:#FFFFFF;stroke-width:17;stroke-miterlimit:10;}
	.st38{clip-path:url(#SVGID_00000118367715672110808660000017706713889506707599_);}
	.st39{fill:#FF00FF;}
	.st40{fill:#00FFFF;}
	.st41{fill:#FFFF00;}
	.st42{clip-path:url(#SVGID_00000003102788483137008630000008910879572459609766_);}
	.st43{clip-path:url(#SVGID_00000060727908577100896750000005136753500221672368_);}
	.st44{clip-path:url(#SVGID_00000122703710157697007830000007835253365282871461_);}
	.st45{clip-path:url(#SVGID_00000157292396321179472630000008953130036611314623_);}
	.st46{clip-path:url(#SVGID_00000000184843196102305110000002635049018542311062_);}
	.st47{clip-path:url(#SVGID_00000000184843196102305110000002635049018542311062_);fill:#FF00FF;}
</style>
<g id="bg" class="st0">
</g>
<g id="Layer_14" class="st0">
</g>
<g id="Layer_1" class="st0">
</g>
<g id="Layer_2" class="st0">
</g>
<g id="Layer_7" class="st0">
</g>
<g id="Layer_6" class="st0">
</g>
<g id="masks" class="st0">
</g>
<g id="fills" class="st0">
</g>
<g id="Layer_4" class="st0">
</g>
<g id="Layer_5" class="st0">
</g>
<g id="Layer_8" class="st0">
</g>
<g id="masks_2" class="st0">
</g>
<g id="Layer_12" class="st0">
</g>
<g id="Layer_11" class="st0">
</g>
<g id="Layer_13">
</g>
<g id="Layer_16">
	<path d="M173.2,2c-23.6,0-44,13.1-54.6,32.4h26.2c26-24.9,69.6-6.4,69.7,29.8c-1.3,48.5-68,56.8-81.2,10.2h-21.4
		c6.1,41.7,54.9,65.2,91.2,44.5C258.7,88.7,237.6,2.1,173.2,2z"/>
	<path d="M139.5,210l-1.2-2h-23.1c0.5,1,1.7,3,2.3,3.9c1.9,3.3,0.3,6.1-3.5,6.1H33c-3.9,0-5.4-2.7-3.5-6.1l1.1-1.9
		c0,0,8-13.8,8-13.8l30.8-53.3l0.6-1.1c1.9-3.3,5.1-3.3,7,0L92.2,168h23.1c0,0-26.7-46.3-26.7-46.3c-8.1-14.6-22.5-13.7-30,0
		c0,0-30.6,53-30.6,53l-1.5,2.7c0,0-20,34.6-20,34.6c-8.2,14.3-1.5,26,15,26c0,0,104.3,0,104.3,0C143.5,238.2,149,224.1,139.5,210z"
		/>
	<path d="M173,136.5c-0.3,0-0.7,0-1,0V168c0,5.4-4.6,10-10,10H68.4c-2.4,0-4.6-0.9-6.4-2.4L52,193.1c4.7,3.1,10.4,4.9,16.4,4.9H162
		c16.5,0,30-13.5,30-30v-34C185.9,135.6,179.6,136.5,173,136.5z"/>
	<path d="M58.4,106.6V74.4c0-5.4,4.6-10,10-10H162c5.4,0,10,4.6,10,10v21c7.4,0.3,14.5-2.1,20-6.3V74.4c0-16.5-13.5-30-30-30H68.4
		c-16.5,0-30,13.5-30,30v62.2C43.1,129.3,51.3,111.5,58.4,106.6z"/>
</g>
</svg>
