<svg xmlns="http://www.w3.org/2000/svg" viewBox="0 0 238 240" style={{ marginTop: "-0.25rem" }}>
  <path fill="#fff" d="M173.2 2c-23.6 0-44 13.1-54.6 32.4h26.2c26-24.9 69.6-6.4 69.7 29.8-1.3 48.5-68 56.8-81.2 10.2h-21.4c6.1 41.7 54.9 65.2 91.2 44.5C258.7 88.7 237.6 2.1 173.2 2zm-33.7 208-1.2-2h-23.1c.5 1 1.7 3 2.3 3.9 1.9 3.3.3 6.1-3.5 6.1H33c-3.9 0-5.4-2.7-3.5-6.1l1.1-1.9 8-13.8 30.8-53.3.6-1.1c1.9-3.3 5.1-3.3 7 0L92.2 168h23.1l-26.7-46.3c-8.1-14.6-22.5-13.7-30 0l-30.6 53-1.5 2.7-20 34.6c-8.2 14.3-1.5 26 15 26h104.3c17.7.2 23.2-13.9 13.7-28z"/>
  <path fill="#fff" d="M173 136.5h-1V168c0 5.4-4.6 10-10 10H68.4c-2.4 0-4.6-.9-6.4-2.4l-10 17.5c4.7 3.1 10.4 4.9 16.4 4.9H162c16.5 0 30-13.5 30-30v-34c-6.1 1.6-12.4 2.5-19 2.5zM58.4 106.6V74.4c0-5.4 4.6-10 10-10H162c5.4 0 10 4.6 10 10v21c7.4.3 14.5-2.1 20-6.3V74.4c0-16.5-13.5-30-30-30H68.4c-16.5 0-30 13.5-30 30v62.2c4.7-7.3 12.9-25.1 20-30z"/>
</svg>
