<svg xmlns="http://www.w3.org/2000/svg" viewBox="0 0 242 220">
  <path fill="#fff" d="M64.5 87V61.2c0-6 5-11 11-11h42.6c1.2-6.3 3.3-12.3 6.3-18H75.5c-16 0-29 13-29 29v48.2l6.3-10.9C55.9 93 60 89.1 64.5 87zm133.6 67.8V61.2c0-16-13-29-29-29h-4.7c-7.1 4-12.5 10.4-15.3 18h20c6 0 11 5 11 11v93.6c0 6-5 11-11 11H75.5c-6 0-11-5-11-11v-16.6l-15.9 27.5c4.4 10.9 15.2 18.1 26.9 18.1h93.6c16 0 29-13 29-29z"/>
  <path fill="#fff" d="M239.5 62c0-9.7-2.4-19.3-7-27.8-5.9-10.8-14.9-19.4-26-24.8-7.9-3.8-16.4-5.7-25.3-5.7-8.9 0-17.4 1.9-25.3 5.7-2.2 1.1-4.3 2.3-6.4 3.6-.6.4-1.3.8-1.9 1.3-1.2.8-2.4 1.8-3.5 2.7-1.4 1.2-2.8 2.4-4.1 3.8-1.2 1.2-2.4 2.5-3.5 3.9-.2.2-.4.5-.6.8l-1.8 2.4-.2.3c-.7.9-1.3 1.8-1.9 2.8l-.2.3c-.1.2-.2.3-.3.5-.5.8-1 1.7-1.5 2.5-2.9 5.4-4.9 11.1-6 17.1l-.6 3.9c-.3 2.2-.4 4.5-.4 6.7 0 29.6 21.9 54.2 51.1 57.8v-18.2c-4.2-.8-8.2-2.2-12-4.2-2.8-1.5-5.5-3.4-7.9-5.6C145.8 84.2 141 73.3 141 62c0-2.3.2-4.7.6-7 .2-1.4.6-2.8.9-4.1 2.1-7.2 6.1-13.7 11.6-18.7.7-.6 1.4-1.2 2.2-1.8l.2-.2c.2-.2.4-.3.6-.5 1.6-1.2 3.2-2.2 4.9-3.1.1-.1.2-.1.4-.2l.2-.1c1.5-.8 3.1-1.5 4.8-2.1 1.2-.5 2.5-.8 3.8-1.2 3.3-.8 6.6-1.3 10-1.3 10.7 0 20.9 4.2 28.5 11.8 4.6 4.6 8.1 10.3 10 16.5 1.2 3.9 1.8 7.9 1.8 12 0 3.4-.4 6.8-1.3 10.1-1 3.8-2.5 7.5-4.6 10.8-2 3.3-4.5 6.3-7.4 8.9-1.3 1.2-2.8 2.4-4.3 3.4v20.4c21.8-9.1 35.6-30 35.6-53.6zM3 206.5c.4 1.5 1.2 2.9 2.2 4.2.4.5.8 1 1.3 1.4.5.4 1 .8 1.6 1.2.6.4 1.2.7 1.9 1 1 .5 2.1.9 3.3 1.2 2 .5 4.3.8 6.8.8h104.3c2.4 0 4.7-.3 6.8-.8 1.1-.3 2.2-.7 3.3-1.2.7-.3 1.3-.7 1.9-1 .6-.4 1.1-.8 1.6-1.2.5-.4.9-.9 1.3-1.4 1-1.2 1.7-2.6 2.2-4.1.4-1.3.5-2.6.5-4-.1-3.4-1.2-7-3.4-10.8l-1.1-2h-20.8l.5.9c.1.2.3.5.4.7.7 1.4.8 2.8.3 4-.2.4-.4.8-.6 1.1-.5.7-1.3 1.1-2.2 1.4-.5.1-1 .2-1.4.3H31.1c-.8-.1-1.5-.3-2.1-.5l-.6-.3c-.4-.2-.7-.5-1-.9-.3-.3-.5-.7-.6-1.1-.2-.4-.2-.8-.3-1.3v-.7c0-.4.1-.9.3-1.4.1-.2.2-.5.3-.7.1-.2.2-.5.4-.7L68 120.5c.4-.6.8-1.2 1.4-1.7.4-.3.7-.6 1.1-.8 2.2-1.1 4.7-.1 6.2 2.5l22.7 39.2h20.8l-33.7-58.3c-3.8-6.6-8.8-10.2-14.1-10.2-.8 0-1.6.1-2.4.3-1.3.3-2.5.8-3.7 1.4-3 1.7-5.7 4.6-8 8.5L5.8 191.8c-2.2 3.8-3.3 7.4-3.4 10.8 0 1.3.2 2.7.6 3.9z"/>
</svg>
