<svg xmlns="http://www.w3.org/2000/svg" xml:space="preserve" width="242" height="220">
  <path fill="black" d="M75.463 31.196c-16.5 0-30 13.5-30 30v51.944l8.176-14.161c3.223-5.583 7.293-9.454 11.824-11.359V61.196c0-5.421 4.579-10 10-10h43.475a62.81 62.81 0 0 1 7.1-20H75.463z"/>
  <path fill="black" d="M135.5 184.806h33.573c16.5 0 30-13.5 30-30v-93.61c0-16.5-13.5-30-30-30h-4.928c-7.732 4.312-13.68 11.445-16.446 20h21.375c5.421 0 10 4.579 10 10V154.806c0 5.421-4.579 10-10 10H75.463c-5.421 0-10-4.579-10-10v-20.307l-17.965 31.117c4.362 11.198 15.272 19.191 27.965 19.191H135.5v-.001z"/>
  <path fill="black" d="M156.974 31.196c.269-.213.535-.431.81-.637a39.716 39.716 0 0 1 4.779-3.066c.191-.104.388-.197.58-.297a38.976 38.976 0 0 1 4.636-2.063 39.207 39.207 0 0 1 3.687-1.149 39.197 39.197 0 0 1 9.805-1.239c10.829 0 20.649 4.405 27.761 11.518a39.45 39.45 0 0 1 9.749 16.094 39.166 39.166 0 0 1 1.769 11.668 39.312 39.312 0 0 1-1.238 9.805 39.16 39.16 0 0 1-4.456 10.548 39.446 39.446 0 0 1-7.188 8.711 39.629 39.629 0 0 1-4.594 3.591v22.468c21.946-8.688 37.476-30.085 37.476-55.122 0-10.231-2.592-19.857-7.155-28.256A59.486 59.486 0 0 0 206.97 8.592c-7.775-3.746-16.492-5.846-25.7-5.846s-17.925 2.099-25.7 5.846a59.081 59.081 0 0 0-6.504 3.676c-.644.418-1.279.848-1.905 1.289a59.699 59.699 0 0 0-3.598 2.726 59.584 59.584 0 0 0-4.21 3.826 59.57 59.57 0 0 0-3.577 3.922c-.212.253-.419.51-.626.767a58.736 58.736 0 0 0-1.837 2.399c-.079.108-.155.218-.233.327a58.843 58.843 0 0 0-1.905 2.824c-.18.284-.369.562-.544.849a58.411 58.411 0 0 0-1.485 2.573 58.886 58.886 0 0 0-6.15 17.427 59.09 59.09 0 0 0-.601 4 59.9 59.9 0 0 0-.404 6.829c0 30.646 23.256 55.857 53.082 58.956v-20.17a38.967 38.967 0 0 1-12.51-4.254 39.493 39.493 0 0 1-7.689-5.468c-7.91-7.19-12.883-17.557-12.883-29.063 0-2.33.216-4.609.607-6.829a38.72 38.72 0 0 1 .924-4 39.345 39.345 0 0 1 11.352-18.234 38.863 38.863 0 0 1 2.1-1.768z"/>
  <path fill="black" d="m45.972 160.258 19.491-33.759 3.14-5.438a6.652 6.652 0 0 1 1.196-1.523c.287-.26.586-.469.893-.625 1.685-.86 3.588-.143 4.911 2.149l22.947 39.746h23.094l-34.541-59.827c-4.125-7.145-9.562-10.717-15-10.717-.882 0-1.763.104-2.64.292-1.354.29-2.693.805-4 1.544-3.062 1.732-5.938 4.685-8.36 8.881l-11.64 20.161-4 6.928-17.41 30.155-19.081 33.05c-2.32 4.019-3.454 7.832-3.518 11.238-.028 1.514.154 2.947.538 4.281a12.544 12.544 0 0 0 2.362 4.51c.435.531.917 1.031 1.446 1.499.528.468 1.102.904 1.72 1.305.618.401 1.281.768 1.987 1.098 1.059.495 2.215.907 3.465 1.228 2.082.536 4.422.822 7 .822h104.263c2.578 0 4.918-.285 7-.822a19.999 19.999 0 0 0 3.465-1.228c.706-.33 1.369-.696 1.987-1.098a14.436 14.436 0 0 0 1.72-1.305c.528-.468 1.01-.969 1.446-1.499a12.544 12.544 0 0 0 2.362-4.51 14.44 14.44 0 0 0 .538-4.281c-.064-3.406-1.198-7.219-3.518-11.238l-1.424-2.467h-23.094l1.378 2.386c.12.208.227.414.32.618.56 1.219.638 2.334.299 3.233-.113.3-.272.575-.475.823-.406.495-.988.878-1.727 1.115a5.687 5.687 0 0 1-1.223.242 7.408 7.408 0 0 1-.695.031H31.612c-.241 0-.472-.011-.695-.031-.668-.062-1.253-.216-1.747-.447a3.958 3.958 0 0 1-.464-.256 3.203 3.203 0 0 1-.739-.654 2.915 2.915 0 0 1-.475-.823 3.205 3.205 0 0 1-.197-.967 3.78 3.78 0 0 1 .01-.53c.031-.362.113-.742.246-1.136.067-.197.147-.397.24-.6s.2-.409.32-.618l14.991-25.965 2.87-4.971z"/>
</svg>
